<svg width="15" height="31" viewBox="0 0 15 31" fill="none" xmlns="http://www.w3.org/2000/svg">
<path d="M3.01205 30.1791C3.01205 25.188 3.01205 20.2296 3.01205 15.2221C1.99219 15.2221 1.00675 15.2221 0 15.2221C0 13.507 0 11.8411 0 10.1359C0.759162 10.1359 1.50685 10.1359 2.25453 10.1359C2.37587 10.1359 2.4972 10.1293 2.61854 10.1375C2.90056 10.1539 3.01861 10.0605 3.01533 9.74566C3.00386 8.37654 3.02681 7.00579 3.02845 5.63667C3.03501 2.77874 4.83536 0.668502 7.67689 0.334011C8.97058 0.181523 10.2872 0.217596 11.594 0.186442C12.3794 0.166766 13.1665 0.183163 13.983 0.183163C13.983 1.94908 13.983 3.68711 13.983 5.4727C13.8404 5.4727 13.6994 5.4727 13.5583 5.4727C12.6123 5.4727 11.6662 5.49074 10.7201 5.46615C10.0593 5.44975 9.22472 6.10233 9.269 6.91888C9.32474 7.95679 9.28211 8.99961 9.28211 10.1064C10.8677 10.1064 12.4221 10.1064 14.0371 10.1064C13.8387 11.8444 13.6469 13.5103 13.4534 15.2008C12.0433 15.2008 10.6873 15.2008 9.26736 15.2008C9.26736 20.205 9.26736 25.1814 9.26736 30.1807C7.15875 30.1791 5.11574 30.1791 3.01205 30.1791Z" fill="#3ADCDC"/>
</svg>
