<svg width="31" height="32" viewBox="0 0 31 32" fill="none" xmlns="http://www.w3.org/2000/svg">
<path d="M0.0642777 15.8616C0.0642777 13.6494 0.0593397 11.4372 0.0659237 9.22496C0.0790916 4.1158 4.15951 0.0205749 9.26043 0.00740696C13.4544 -0.00246899 17.6484 -0.00246899 21.8407 0.00740696C26.5499 0.0189289 30.5234 3.66315 30.92 8.36575C31.0171 9.51301 30.9908 10.6701 30.9941 11.824C31.0023 15.3448 31.0007 18.8655 30.9958 22.3847C30.9908 26.9095 28.0692 30.5833 23.6661 31.566C23.0538 31.7026 22.4103 31.7553 21.7798 31.7569C17.6056 31.7734 13.4314 31.7701 9.25714 31.7635C4.15292 31.7553 0.0757996 27.6699 0.0642777 22.5558C0.0609857 20.3239 0.0642777 18.0919 0.0642777 15.8616ZM28.0396 15.9143H28.0412C28.0412 13.7597 28.0445 11.6051 28.0379 9.45046C28.0363 9.02909 28.0346 8.59948 27.9573 8.18634C27.3598 4.96843 24.8348 2.93563 21.426 2.92904C17.4624 2.92081 13.5005 2.9241 9.53696 2.93563C9.02176 2.93727 8.4934 2.97348 7.99137 3.08377C4.97592 3.75204 2.98097 6.25724 2.97933 9.34841C2.97768 13.6955 2.97768 18.0442 2.97933 22.3912C2.98097 26.0519 5.71661 28.832 9.37894 28.8501C13.4956 28.8715 17.6122 28.8732 21.7288 28.8468C25.299 28.8254 28.0214 26.0635 28.0379 22.4933C28.0478 20.2992 28.0396 18.1067 28.0396 15.9143Z" fill="#3ADCDC"/>
<path d="M7.18216 15.8405C7.23483 11.1148 10.9005 7.45908 15.5389 7.50681C20.5674 7.55948 23.9153 10.9157 23.8643 15.8553C23.8166 20.492 20.0127 24.2531 15.445 24.1791C10.828 24.1033 7.13114 20.3719 7.18216 15.8405ZM10.1186 15.875C10.1268 18.8428 12.5514 21.2541 15.5208 21.2492C18.556 21.2443 20.9542 18.7539 20.9377 15.6232C20.9213 12.453 18.7255 10.4038 15.3743 10.4317C12.451 10.4548 10.1104 12.8777 10.1186 15.875Z" fill="#3ADCDC"/>
<path d="M23.9234 8.79552C23.1349 8.77083 22.5062 8.12231 22.5127 7.34046C22.521 6.51582 23.2189 5.85578 24.0518 5.88705C24.827 5.91668 25.4689 6.58331 25.4624 7.35363C25.4558 8.18157 24.771 8.82186 23.9234 8.79552Z" fill="#3ADCDC"/>
</svg>
