<svg width="31" height="29" viewBox="0 0 31 29" fill="none" xmlns="http://www.w3.org/2000/svg">
<path d="M29.7356 10.606C29.7322 10.6027 29.7288 10.596 29.7221 10.5825C27.0983 6.06826 21.3294 4.52764 16.8118 7.12786C16.8084 7.12786 16.8017 7.13459 16.7882 7.14132H16.7849L8.35515 12.0357C7.35273 12.621 7.00962 13.906 7.59156 14.9117C8.1735 15.9175 9.46184 16.2573 10.4676 15.6753L18.8839 10.7877C18.8873 10.7843 18.894 10.781 18.9074 10.7742C21.4135 9.32444 24.6226 10.1788 26.0791 12.6782C26.0791 12.6815 26.0858 12.6882 26.0892 12.6983C27.539 15.2044 26.6846 18.4202 24.1752 19.8734L15.7488 24.7677C14.743 25.353 14.4033 26.638 14.9852 27.6438C15.5705 28.6495 16.8555 28.9893 17.8613 28.4074L26.2876 23.5164C30.7985 20.8926 32.3358 15.1237 29.7356 10.606Z" fill="white"/>
<path d="M22.6447 17.2395C23.6505 16.6575 23.9903 15.3692 23.4083 14.3634C22.823 13.3576 21.538 13.0179 20.5323 13.5998L12.1194 18.4841C12.1194 18.4841 12.116 18.4841 12.116 18.4875C12.1126 18.4875 12.1059 18.4942 12.0925 18.5009C9.58642 19.9474 6.37734 19.0963 4.9208 16.597C4.9208 16.5936 4.91744 16.5869 4.91071 16.5768C3.46091 14.0674 4.31868 10.855 6.82472 9.4018C6.82809 9.4018 6.82809 9.39843 6.83145 9.39843L15.2511 4.51081C16.2535 3.92887 16.5966 2.64053 16.0113 1.63811C15.4294 0.632333 14.141 0.292587 13.1386 0.874527L4.71225 5.76215C0.201372 8.38256 -1.33589 14.1549 1.26434 18.6691C1.26434 18.6725 1.27106 18.6792 1.27779 18.6927C3.90157 23.2069 9.67051 24.7475 14.1881 22.1473C14.1915 22.1473 14.1982 22.1406 14.2117 22.1338C14.2117 22.1338 14.215 22.1338 14.215 22.1305L22.6447 17.2395Z" fill="white"/>
</svg>
